<svg class="impact-chart" viewBox="0 0 518 264" width="100%" height="auto" style="max-width:518px" role="img" preserveAspectRatio="xMinYMin meet" aria-label="Papers citing SQLancer, by publication year" xmlns="http://www.w3.org/2000/svg">
  <title>Papers citing SQLancer, by publication year</title>
  <desc>Papers citing SQLancer per year across 7 periods, peak 65.</desc>
  <line class="impact-chart__grid" x1="44" y1="222.0" x2="506" y2="222.0" />
  <text class="impact-chart__tick" x="36" y="222.0" text-anchor="end" dominant-baseline="central">0</text>
  <line class="impact-chart__grid" x1="44" y1="169.5" x2="506" y2="169.5" />
  <text class="impact-chart__tick" x="36" y="169.5" text-anchor="end" dominant-baseline="central">20</text>
  <line class="impact-chart__grid" x1="44" y1="117.0" x2="506" y2="117.0" />
  <text class="impact-chart__tick" x="36" y="117.0" text-anchor="end" dominant-baseline="central">40</text>
  <line class="impact-chart__grid" x1="44" y1="64.5" x2="506" y2="64.5" />
  <text class="impact-chart__tick" x="36" y="64.5" text-anchor="end" dominant-baseline="central">60</text>
  <line class="impact-chart__grid" x1="44" y1="12.0" x2="506" y2="12.0" />
  <text class="impact-chart__tick" x="36" y="12.0" text-anchor="end" dominant-baseline="central">80</text>
  <line class="impact-chart__axis" x1="44" y1="222" x2="506" y2="222" />
  <rect class="impact-chart__bar" x="49.0" y="214" width="56" height="8" rx="4" fill="var(--impact-sequential)"><title>2020: 3</title></rect>
  <text class="impact-chart__value" x="77.0" y="208" text-anchor="middle">3</text>
  <text class="impact-chart__label" x="77.0" y="240" text-anchor="middle">2020</text>
  <rect class="impact-chart__bar" x="115.0" y="177" width="56" height="45" rx="4" fill="var(--impact-sequential)"><title>2021: 17</title></rect>
  <text class="impact-chart__value" x="143.0" y="171" text-anchor="middle">17</text>
  <text class="impact-chart__label" x="143.0" y="240" text-anchor="middle">2021</text>
  <rect class="impact-chart__bar" x="181.0" y="185" width="56" height="37" rx="4" fill="var(--impact-sequential)"><title>2022: 14</title></rect>
  <text class="impact-chart__value" x="209.0" y="179" text-anchor="middle">14</text>
  <text class="impact-chart__label" x="209.0" y="240" text-anchor="middle">2022</text>
  <rect class="impact-chart__bar" x="247.0" y="141" width="56" height="81" rx="4" fill="var(--impact-sequential)"><title>2023: 31</title></rect>
  <text class="impact-chart__value" x="275.0" y="135" text-anchor="middle">31</text>
  <text class="impact-chart__label" x="275.0" y="240" text-anchor="middle">2023</text>
  <rect class="impact-chart__bar" x="313.0" y="135" width="56" height="87" rx="4" fill="var(--impact-sequential)"><title>2024: 33</title></rect>
  <text class="impact-chart__value" x="341.0" y="129" text-anchor="middle">33</text>
  <text class="impact-chart__label" x="341.0" y="240" text-anchor="middle">2024</text>
  <rect class="impact-chart__bar" x="379.0" y="51" width="56" height="171" rx="4" fill="var(--impact-sequential)"><title>2025: 65</title></rect>
  <text class="impact-chart__value" x="407.0" y="45" text-anchor="middle">65</text>
  <text class="impact-chart__label" x="407.0" y="240" text-anchor="middle">2025</text>
  <rect class="impact-chart__bar" x="445.0" y="101" width="56" height="121" rx="4" fill="var(--impact-sequential)"><title>2026: 46</title></rect>
  <text class="impact-chart__value" x="473.0" y="95" text-anchor="middle">46</text>
  <text class="impact-chart__label" x="473.0" y="240" text-anchor="middle">2026</text>
</svg>
